<svg xmlns="http://www.w3.org/2000/svg" width="30.49" height="30.483" viewBox="0 0 30.49 30.483"><path d="M15.243,9.664a7.815,7.815,0,1,0,7.816,7.815A7.8,7.8,0,0,0,15.243,9.664Zm0,12.9a5.081,5.081,0,1,1,5.081-5.081A5.09,5.09,0,0,1,15.243,22.56ZM25.2,9.344a1.823,1.823,0,1,1-1.823-1.823A1.819,1.819,0,0,1,25.2,9.344Zm5.176,1.85a9.021,9.021,0,0,0-2.462-6.387,9.081,9.081,0,0,0-6.387-2.462c-2.517-.143-10.06-.143-12.577,0A9.068,9.068,0,0,0,2.564,4.8,9.051,9.051,0,0,0,.1,11.187C-.041,13.7-.041,21.248.1,23.764a9.021,9.021,0,0,0,2.462,6.387,9.092,9.092,0,0,0,6.387,2.462c2.517.143,10.06.143,12.577,0a9.021,9.021,0,0,0,6.387-2.462,9.081,9.081,0,0,0,2.462-6.387c.143-2.517.143-10.053,0-12.57Zm-3.251,15.27a5.144,5.144,0,0,1-2.9,2.9c-2.007.8-6.768.612-8.986.612s-6.986.177-8.986-.612a5.144,5.144,0,0,1-2.9-2.9c-.8-2.007-.612-6.768-.612-8.985s-.177-6.986.612-8.985a5.144,5.144,0,0,1,2.9-2.9c2.007-.8,6.768-.612,8.986-.612s6.986-.177,8.986.612a5.144,5.144,0,0,1,2.9,2.9c.8,2.007.612,6.768.612,8.985S27.922,24.465,27.126,26.465Z" transform="translate(0.005 -2.238)" fill="#fff"/></svg>