<svg xmlns="http://www.w3.org/2000/svg" width="32.099" height="26.12" viewBox="0 0 32.099 26.12"><path d="M33.512,7.595A13.314,13.314,0,0,1,29.73,8.636a6.608,6.608,0,0,0,2.9-3.646,13.086,13.086,0,0,1-4.183,1.6,6.584,6.584,0,0,0-11.393,4.5,6.447,6.447,0,0,0,.17,1.5A18.663,18.663,0,0,1,3.644,5.7a6.6,6.6,0,0,0,2.047,8.8A6.432,6.432,0,0,1,2.7,13.683v.082a6.591,6.591,0,0,0,5.285,6.462,6.629,6.629,0,0,1-1.735.231,6.213,6.213,0,0,1-1.238-.122,6.6,6.6,0,0,0,6.156,4.578,13.2,13.2,0,0,1-8.183,2.823,13.349,13.349,0,0,1-1.571-.1A18.408,18.408,0,0,0,11.494,30.62c12.128,0,18.753-10.047,18.753-18.76,0-.286-.007-.571-.02-.85A13.406,13.406,0,0,0,33.512,7.595Z" transform="translate(-1.413 -4.5)" fill="#fff"/></svg>