<svg xmlns="http://www.w3.org/2000/svg" width="66" height="66" viewBox="0 0 66 66"><g transform="translate(-560.13 -206.177)"><circle cx="33" cy="33" r="33" transform="translate(560.13 206.177)" fill="#524bfd"/><g transform="translate(582.991 217.973)"><path d="M787.176,596.877q0-10.842.01-21.688a15.723,15.723,0,0,1,.262-2.591,3.922,3.922,0,0,1,.372-1.138,5.289,5.289,0,0,1,2.33-1.983,2.776,2.776,0,0,1,.473-.212,1.067,1.067,0,0,1,.505-.1c.1.026.05.177.043.271,0,.072-.01.143-.012.215-.107,1.561-.31,3.122-.319,4.684-.036,6.842-.023,13.684,0,20.527v.915s-.46.249-.758.4c-.919.467-1.794,1.019-2.851,1.631C787.2,597.388,787.176,597.134,787.176,596.877Zm13.991-12.924-.105-.054-.437-.227-.064-.034-.507-.266-.345-.182-3.543-1.856v-2.44l2.606,1.367.35.184.307.159.451.235.332.175.132.07.1.05,2.9,1.513.159.083.759.4h0c.005.191.01.384.016.576.014.486.022.973.022,1.468v.415l-.392-.205-1.922-1Zm-.478-3.54-.13-.069-.332-.174a8.729,8.729,0,0,0-1.545-3.138,12.344,12.344,0,0,0-1.852-1.813c-.721-.6-.818-.761-.565-1.726a1.539,1.539,0,0,1,1.452-1.3,4.55,4.55,0,0,1,1.8.384,8,8,0,0,1,4.467,6.211,24.176,24.176,0,0,1,.253,3.475Zm-4.176,5.024-.034-.018-.017-.008,0,0-.1-.055-.191-.1v-3.068l3.192,1.674.347.182.032.017.476.249.068.036.349.182.087.045.453.237.466.243,1.863.971-2.78,1.462-.087.045-.054.028-.127-.064-.342-.179-.347-.181Zm4.114,10.424c0-1.306,0-2.612,0-3.918l0-3.563.435-.229,3.229-1.7,0,5.489c0,.9-.014,1.806-.014,2.758-1.186.686-2.393,1.342-3.66,2.074,0-.41.008-.541.008-.914Zm3.548,3.5-3.061-1.769c1.11-.648,2.149-1.256,3.217-1.877a.719.719,0,0,1,.722,0l3.237,1.87-3.058,1.777a1.051,1.051,0,0,1-1.056,0Zm.939-4.664v-.909c0-.612.008-1.225.014-1.84l0-5.925v-.848c.006-.528.013-1.057.013-1.585,0-.892-.008-1.786-.056-2.676a15.158,15.158,0,0,0-.66-3.9,8.263,8.263,0,0,0-5.027-5.452c-2.394-.906-4.077.31-4.08,2.872q0,1.945,0,3.89v.065q0,1.614,0,3.227v9.227c0,.327,0,.481,0,.943l-.082,2.46c0,1.3-.008,2.292-.008,3.561-1.254-.725-2.433-1.382-3.573-2.042,0-.332,0-.518,0-.711,0-7.456-.025-14.907.025-22.363a11.277,11.277,0,0,1,.567-3.333,3.4,3.4,0,0,1,3.477-2.424,7.921,7.921,0,0,1,3.713,1.057c5.8,2.984,9.073,7.634,9.241,14.293q.037,1.445.05,2.892v6.774c.016,1.406.02,2.815.032,4.221v.708c-1.2-.7-2.472-1.5-3.647-2.179Z" transform="translate(-786.945 -560.172)" fill="#fff"/><circle cx="3.302" cy="3.302" r="3.302" transform="translate(0 0)" fill="#fff"/><path d="M787.176,596.877q0-10.842.01-21.688a15.723,15.723,0,0,1,.262-2.591,3.922,3.922,0,0,1,.372-1.138,5.289,5.289,0,0,1,2.33-1.983,2.776,2.776,0,0,1,.473-.212,1.067,1.067,0,0,1,.505-.1c.1.026.05.177.043.271,0,.072-.01.143-.012.215-.107,1.561-.31,3.122-.319,4.684-.036,6.842-.023,13.684,0,20.527v.915s-.46.249-.758.4c-.919.467-1.794,1.019-2.851,1.631C787.2,597.388,787.176,597.134,787.176,596.877Zm13.991-12.924-.105-.054-.437-.227-.064-.034-.507-.266-.345-.182-3.543-1.856v-2.44l2.606,1.367.35.184.307.159.451.235.332.175.132.07.1.05,2.9,1.513.159.083.759.4h0c.005.191.01.384.016.576.014.486.022.973.022,1.468v.415l-.392-.205-1.922-1Zm-.478-3.54-.13-.069-.332-.174a8.729,8.729,0,0,0-1.545-3.138,12.344,12.344,0,0,0-1.852-1.813c-.721-.6-.818-.761-.565-1.726a1.539,1.539,0,0,1,1.452-1.3,4.55,4.55,0,0,1,1.8.384,8,8,0,0,1,4.467,6.211,24.176,24.176,0,0,1,.253,3.475Zm-4.176,5.024-.034-.018-.017-.008,0,0-.1-.055-.191-.1v-3.068l3.192,1.674.347.182.032.017.476.249.068.036.349.182.087.045.453.237.466.243,1.863.971-2.78,1.462-.087.045-.054.028-.127-.064-.342-.179-.347-.181Zm4.114,10.424c0-1.306,0-2.612,0-3.918l0-3.563.435-.229,3.229-1.7,0,5.489c0,.9-.014,1.806-.014,2.758-1.186.686-2.393,1.342-3.66,2.074,0-.41.008-.541.008-.914Zm3.548,3.5-3.061-1.769c1.11-.648,2.149-1.256,3.217-1.877a.719.719,0,0,1,.722,0l3.237,1.87-3.058,1.777a1.051,1.051,0,0,1-1.056,0Zm.939-4.664v-.909c0-.612.008-1.225.014-1.84l0-5.925v-.848c.006-.528.013-1.057.013-1.585,0-.892-.008-1.786-.056-2.676a15.158,15.158,0,0,0-.66-3.9,8.263,8.263,0,0,0-5.027-5.452c-2.394-.906-4.077.31-4.08,2.872q0,1.945,0,3.89v.065q0,1.614,0,3.227v9.227c0,.327,0,.481,0,.943l-.082,2.46c0,1.3-.008,2.292-.008,3.561-1.254-.725-2.433-1.382-3.573-2.042,0-.332,0-.518,0-.711,0-7.456-.025-14.907.025-22.363a11.277,11.277,0,0,1,.567-3.333,3.4,3.4,0,0,1,3.477-2.424,7.921,7.921,0,0,1,3.713,1.057c5.8,2.984,9.073,7.634,9.241,14.293q.037,1.445.05,2.892v6.774c.016,1.406.02,2.815.032,4.221v.708c-1.2-.7-2.472-1.5-3.647-2.179Z" transform="translate(-786.945 -560.172)" fill="#fff"/></g></g></svg>